# xmcd
#
# Track frame offsets:
#	150
#	15477
#	32721
#	45066
#	61859
#	79243
#	98009
#	111710
#	127990
#	142723
#	156983
#	177201
#
# Disc length: 2603 seconds
#
# Revision: 1
# Processed by: cddbd v1.5.2PL0 Copyright (c) Steve Scherf et al.
# Submitted via: audiograbber 1.83.01
#
DISCID=8c0a290c
DTITLE=JEFFREY CLARKE - GHOST TOWN
DYEAR=1900
DGENRE=
TTITLE0=Didn't Dare Take Pictures
TTITLE1=8 Seconds
TTITLE2=To Get It Right
TTITLE3=Ghost Town
TTITLE4=Bare Knuckle Fightin'
TTITLE5=Some Old Song
TTITLE6=Sunset With You
TTITLE7=Broken Heart Ago
TTITLE8=Bar Fightin' Mama
TTITLE9=The Cold
TTITLE10=I Know
TTITLE11=Darkened Highways
EXTD=
EXTT0=
EXTT1=
EXTT2=
EXTT3=
EXTT4=
EXTT5=
EXTT6=
EXTT7=
EXTT8=
EXTT9=
EXTT10=
EXTT11=
PLAYORDER=
